<svg width="21" height="21" viewBox="0 0 21 21" fill="none" xmlns="http://www.w3.org/2000/svg">
<path d="M18.833 10.5002C18.833 12.7103 17.955 14.8299 16.3922 16.3927C14.8294 17.9555 12.7098 18.8335 10.4997 18.8335C8.28954 18.8335 6.16992 17.9555 4.60712 16.3927C3.04431 14.8299 2.16634 12.7103 2.16634 10.5002C2.16634 8.29002 3.04431 6.17041 4.60712 4.60761C6.16992 3.0448 8.28954 2.16683 10.4997 2.16683C11.2913 2.16683 12.0622 2.28141 12.7913 2.48975L14.4268 0.854329C13.2184 0.354329 11.8955 0.0834961 10.4997 0.0834961C9.13174 0.0834961 7.7772 0.352931 6.51339 0.876418C5.24958 1.3999 4.10126 2.16719 3.13398 3.13447C1.18047 5.08797 0.0830078 7.73749 0.0830078 10.5002C0.0830078 13.2628 1.18047 15.9124 3.13398 17.8659C4.10126 18.8331 5.24958 19.6004 6.51339 20.1239C7.7772 20.6474 9.13174 20.9168 10.4997 20.9168C13.2623 20.9168 15.9119 19.8194 17.8654 17.8659C19.8189 15.9124 20.9163 13.2628 20.9163 10.5002M6.23926 8.50016L4.77051 9.97933L9.45801 14.6668L19.8747 4.25016L18.4059 2.771L9.45801 11.7189L6.23926 8.50016Z" fill="#635A5B"/>
</svg>
