<svg width="20" height="18" viewBox="0 0 20 18" fill="none" xmlns="http://www.w3.org/2000/svg">
<path d="M14.5979 0.599997C15.8642 0.599997 17.0615 1.13939 17.969 2.11889C18.8918 3.11458 19.4 4.44058 19.4 5.85207C19.4 6.82857 19.2308 7.73006 18.8828 8.60876C18.5744 9.38755 18.1328 10.1276 17.5328 10.8707C16.4018 12.272 14.9405 13.3979 13.5272 14.4866C13.2284 14.7167 12.9461 14.9342 12.6665 15.1547C11.7557 15.8726 10.814 16.6151 9.99955 16.6151C9.18505 16.6151 8.24336 15.8726 7.33286 15.1547C7.05326 14.9342 6.77097 14.7167 6.47217 14.4866C5.05887 13.3979 3.59788 12.272 2.46659 10.8707C1.86659 10.1276 1.42529 9.38785 1.11659 8.60876C0.768596 7.73036 0.599397 6.82857 0.599397 5.85207C0.599397 4.44028 1.10759 3.11428 2.03009 2.11859C2.93759 1.13909 4.13488 0.599697 5.40147 0.599697C6.84717 0.599697 8.28776 1.30229 9.56695 2.63159C9.68005 2.74919 9.83605 2.81549 9.99925 2.81549C10.1624 2.81549 10.3184 2.74919 10.4315 2.63159C11.711 1.30229 13.1513 0.599697 14.597 0.599697M14.5979 0C13.115 0 11.5019 0.655497 10.0001 2.21579C8.49836 0.655797 6.88467 0 5.40207 0C2.44109 0 0 2.61179 0 5.85207C0 10.715 4.01938 13.3064 6.96177 15.6257C8.00006 16.4441 8.99995 17.2148 10.0001 17.2148C11.0003 17.2148 12.0002 16.4441 13.0385 15.6257C15.9809 13.3061 20.0003 10.7147 20.0003 5.85207C20 2.61209 17.5583 0 14.5979 0Z" fill="#1C274C"/>
</svg>
