<svg width="20" height="20" viewBox="0 0 20 20" fill="none" xmlns="http://www.w3.org/2000/svg">
<path d="M19.3775 2.425C19.4943 2.54216 19.5599 2.70083 19.5599 2.86625C19.5599 3.03167 19.4943 3.19035 19.3775 3.3075L18.0737 4.6125L15.5737 2.1125L16.8775 0.807503C16.9947 0.690334 17.1536 0.624512 17.3194 0.624512C17.4851 0.624512 17.644 0.690334 17.7612 0.807503L19.3775 2.42375V2.425ZM17.19 5.495L14.69 2.995L6.17375 11.5125C6.10495 11.5813 6.05316 11.6652 6.0225 11.7575L5.01625 14.775C4.998 14.83 4.99541 14.889 5.00876 14.9454C5.02212 15.0018 5.0509 15.0534 5.09188 15.0944C5.13286 15.1354 5.18444 15.1641 5.24083 15.1775C5.29723 15.1908 5.35623 15.1883 5.41125 15.17L8.42875 14.1638C8.52095 14.1335 8.60483 14.0821 8.67375 14.0138L17.19 5.495Z" fill="white"/>
<path fill-rule="evenodd" clip-rule="evenodd" d="M1.25 16.875C1.25 17.3723 1.44754 17.8492 1.79917 18.2008C2.15081 18.5525 2.62772 18.75 3.125 18.75H16.875C17.3723 18.75 17.8492 18.5525 18.2008 18.2008C18.5525 17.8492 18.75 17.3723 18.75 16.875V9.375C18.75 9.20924 18.6842 9.05027 18.5669 8.93306C18.4497 8.81585 18.2908 8.75 18.125 8.75C17.9592 8.75 17.8003 8.81585 17.6831 8.93306C17.5658 9.05027 17.5 9.20924 17.5 9.375V16.875C17.5 17.0408 17.4342 17.1997 17.3169 17.3169C17.1997 17.4342 17.0408 17.5 16.875 17.5H3.125C2.95924 17.5 2.80027 17.4342 2.68306 17.3169C2.56585 17.1997 2.5 17.0408 2.5 16.875V3.125C2.5 2.95924 2.56585 2.80027 2.68306 2.68306C2.80027 2.56585 2.95924 2.5 3.125 2.5H11.25C11.4158 2.5 11.5747 2.43415 11.6919 2.31694C11.8092 2.19973 11.875 2.04076 11.875 1.875C11.875 1.70924 11.8092 1.55027 11.6919 1.43306C11.5747 1.31585 11.4158 1.25 11.25 1.25H3.125C2.62772 1.25 2.15081 1.44754 1.79917 1.79917C1.44754 2.15081 1.25 2.62772 1.25 3.125V16.875Z" fill="white"/>
</svg>
