<svg width="86" height="85" viewBox="0 0 86 85" fill="none" xmlns="http://www.w3.org/2000/svg">
<mask id="path-1-inside-1_501_61" fill="white">
<path d="M86 42.5C86 50.9057 83.4781 59.1226 78.7532 66.1117C74.0283 73.1008 67.3126 78.5481 59.4554 81.7649C51.5982 84.9816 42.9523 85.8232 34.6111 84.1834C26.2699 82.5435 18.6081 78.4958 12.5944 72.552C6.58077 66.6083 2.48542 59.0355 0.826252 50.7913C-0.832912 42.5471 0.0186313 34.0018 3.2732 26.2359C6.52777 18.4701 12.0392 11.8325 19.1105 7.16254C26.1818 2.49258 34.4954 -1.00237e-07 43 0V42.5H86Z"/>
</mask>
<path d="M86 42.5H406V-277.5H86V42.5ZM43 0H363V-320L43 -320L43 0ZM43 42.5H-277V362.5H43V42.5ZM-234 42.5C-234 -13.2232 -217.263 -67.3825 -186.351 -113.109L343.857 245.332C384.22 185.628 406 115.035 406 42.5H-234ZM-186.351 -113.109C-155.468 -158.79 -111.971 -193.832 -61.7848 -214.378L180.696 377.908C246.596 350.929 303.525 304.992 343.857 245.332L-186.351 -113.109ZM-61.7848 -214.378C-11.6327 -234.91 43.342 -240.226 96.3413 -229.806L-27.119 398.173C42.5627 411.872 114.829 404.874 180.696 377.908L-61.7848 -214.378ZM96.3413 -229.806C149.359 -219.383 198.566 -193.564 237.542 -155.041L-212.353 300.146C-161.35 350.555 -96.8196 384.47 -27.119 398.173L96.3413 -229.806ZM237.542 -155.041C276.557 -116.48 303.558 -66.8921 314.536 -12.3436L-312.884 113.926C-298.587 184.963 -263.396 249.696 -212.353 300.146L237.542 -155.041ZM314.536 -12.3436C325.519 42.2285 319.848 98.7527 298.404 149.921L-291.857 -97.4493C-319.81 -30.7491 -327.185 42.8658 -312.884 113.926L314.536 -12.3436ZM298.404 149.921C276.976 201.05 240.948 244.144 195.456 274.187L-157.235 -259.862C-216.87 -220.479 -263.921 -164.109 -291.857 -97.4493L298.404 149.921ZM195.456 274.187C150.005 304.203 96.9581 320 43 320L43 -320C-27.9672 -320 -97.6418 -299.218 -157.235 -259.862L195.456 274.187ZM-277 0V42.5H363V0H-277ZM43 362.5H86V-277.5H43V362.5Z" fill="#FB1C49" mask="url(#path-1-inside-1_501_61)"/>
</svg>
