<svg width="98" height="25" viewBox="0 0 98 25" fill="none" xmlns="http://www.w3.org/2000/svg">
<path d="M6.832 8.752H2.72V11.616H6.048V13.392H2.72V18H0.8V6.8H6.832V8.752ZM6.18688 17.984L9.64288 6.8H12.0589L15.5309 17.984H13.4829L12.6829 15.28H9.03488L8.23488 17.984H6.18688ZM10.8589 9.2L9.54688 13.616H12.1709L10.8589 9.2ZM20.0593 18.16C19.5793 18.16 19.0939 18.0853 18.6033 17.936C18.1233 17.7867 17.6699 17.584 17.2433 17.328C16.8273 17.0613 16.4699 16.768 16.1713 16.448L17.5953 15.072C17.9153 15.4027 18.2993 15.6693 18.7473 15.872C19.2059 16.0747 19.6326 16.176 20.0273 16.176C20.5286 16.176 20.9499 16.032 21.2913 15.744C21.6433 15.4453 21.8193 15.0933 21.8193 14.688C21.8193 14.3573 21.6966 14.0747 21.4513 13.84C21.2059 13.5947 20.9019 13.4187 20.5393 13.312C19.5899 13.056 18.7793 12.784 18.1073 12.496C17.4459 12.208 16.9553 11.8293 16.6353 11.36C16.3153 10.8907 16.1979 10.2613 16.2833 9.472C16.3579 8.85333 16.5606 8.34133 16.8913 7.936C17.2326 7.52 17.6593 7.21067 18.1713 7.008C18.6939 6.80533 19.2699 6.704 19.8993 6.704C20.4646 6.704 21.0566 6.79467 21.6753 6.976C22.2939 7.14667 22.9073 7.43467 23.5153 7.84L22.1553 9.248C21.8459 9.07733 21.5099 8.93333 21.1473 8.816C20.7846 8.69867 20.4113 8.63467 20.0273 8.624C19.7286 8.61333 19.4406 8.64533 19.1633 8.72C18.8966 8.784 18.6726 8.90133 18.4913 9.072C18.3099 9.232 18.2139 9.45067 18.2033 9.728C18.1926 10.0373 18.2726 10.2773 18.4433 10.448C18.6139 10.6187 18.8486 10.7573 19.1473 10.864C19.4566 10.9707 19.8139 11.088 20.2193 11.216C20.9659 11.4187 21.6006 11.6533 22.1233 11.92C22.6459 12.176 23.0459 12.5227 23.3233 12.96C23.6006 13.3867 23.7393 13.9627 23.7393 14.688C23.7393 15.3387 23.5739 15.9253 23.2433 16.448C22.9126 16.9707 22.4699 17.3867 21.9153 17.696C21.3606 18.0053 20.7419 18.16 20.0593 18.16ZM33.271 8.56H30.103V18H28.183V8.56H25.015V6.8H33.271V8.56ZM73.1929 8.56H70.0249V18H68.1049V8.56H64.9369V6.8H73.1929V8.56ZM76.5481 18H74.6281V6.8H76.5481V18ZM78.1438 18V6.8H81.2478L83.8878 13.872L86.5278 6.8H89.6318V18H87.7118V9.152L84.7998 16.4H82.9918L80.0638 9.152V18H78.1438ZM97.2695 18H91.2375V6.8H97.2695V8.592H93.1575V11.712H96.4855V13.328H93.1575V16.208H97.2695V18Z" fill="#332427"/>
<g clip-path="url(#clip0_672_3)">
<path d="M60.2552 13.9705H49.3503L56.6127 21.2329C56.8903 21.5105 57.3471 21.533 57.6325 21.2641C59.4109 19.5886 60.6343 17.3298 60.9932 14.7908C61.0548 14.356 60.694 13.9705 60.2552 13.9705ZM59.5277 10.9925C59.149 5.50264 54.762 1.11569 49.2722 0.737013C48.853 0.708061 48.5001 1.06146 48.5001 1.4815V11.7646H58.7836C59.2037 11.7646 59.5566 11.4116 59.5277 10.9925ZM46.2942 13.9705V3.0656C46.2942 2.62672 45.9086 2.26597 45.4744 2.32755C39.9978 3.10144 35.8117 7.88591 36.0065 13.6198C36.2069 19.5086 41.2772 24.3377 47.1688 24.2637C49.4849 24.2347 51.6251 23.4884 53.3848 22.2402C53.7478 21.9829 53.7717 21.4484 53.4569 21.1336L46.2942 13.9705Z" fill="#FC4C70"/>
</g>
<defs>
<clipPath id="clip0_672_3">
<rect width="25" height="25" fill="white" transform="translate(36)"/>
</clipPath>
</defs>
</svg>
